<?xml version="1.0" encoding="utf-8"?>
<!-- Generator: Adobe Illustrator 16.0.0, SVG Export Plug-In . SVG Version: 6.00 Build 0)  -->
<!DOCTYPE svg PUBLIC "-//W3C//DTD SVG 1.1//EN" "http://www.w3.org/Graphics/SVG/1.1/DTD/svg11.dtd">
<svg version="1.1" id="svg2" xmlns:svg="http://www.w3.org/2000/svg"
	 xmlns="http://www.w3.org/2000/svg" xmlns:xlink="http://www.w3.org/1999/xlink" x="0px" y="0px" width="100px" height="100px"
	 viewBox="272.5 242.5 100 100" enable-background="new 272.5 242.5 100 100" xml:space="preserve">
<g id="layer1">
	<path id="path2417" fill="#E02E04" d="M318.446,337.069c-2.147-2.688-7.507-7.927-11.913-11.644
		c-13.052-11.009-14.829-12.603-20.128-18.053c-9.771-10.05-13.919-20.145-13.905-33.833c0.006-6.683,0.415-9.257,2.09-13.196
		c2.842-6.683,7.03-11.648,12.382-14.686c3.792-2.15,5.661-3.107,11.993-3.146c6.623-0.041,8.017,0.822,11.913,3.212
		c4.742,2.909,9.623,9.128,10.631,13.546l0.624,2.729l1.537-3.757c8.684-21.235,36.409-20.917,46.057,0.527
		c3.061,6.803,3.397,21.328,0.684,29.511c-3.541,10.672-10.191,18.811-25.563,31.28c-10.08,8.179-21.49,20.551-22.284,22.288
		C321.641,343.867,322.519,342.165,318.446,337.069z"/>
	<g id="g2221" transform="translate(129.28571,-64.285714)">
	</g>
</g>
<image overflow="visible" width="803" height="102" xlink:href="../icons/buttons.png"  transform="matrix(1 0 0 1 -36.5 59.834)">
</image>
</svg>
