<?xml version="1.0" encoding="UTF-8"?>
<svg width="1404px" height="1197px" viewBox="0 0 1404 1197" version="1.1" xmlns="http://www.w3.org/2000/svg" xmlns:xlink="http://www.w3.org/1999/xlink">
    <!-- Generator: Sketch 40 (33762) - http://www.bohemiancoding.com/sketch -->
    <title>heart_violet</title>
    <desc>Created with Sketch.</desc>
    <defs></defs>
    <g id="Page-1" stroke="none" stroke-width="1" fill="none" fill-rule="evenodd">
        <g id="heart_violet" fill="#BA02E2">
            <path d="M702,1196.953 L674.946,1181.239 C647.352,1165.256 0,785.203 0,378.529 C0,170.089 169.56,0.529 378,0.529 C515.322,0.529 635.796,74.131 702,183.967 C768.205,74.131 888.677,0.529 1026,0.529 C1234.387,0.529 1404,170.089 1404,378.529 C1404,785.203 756.648,1165.256 729.055,1181.239 L702,1196.953 L702,1196.953 Z M378,108.529 C229.122,108.529 108,229.651 108,378.529 C108,681.253 582.336,996.559 702,1071.295 C821.664,996.56 1296,681.253 1296,378.529 C1296,229.651 1174.879,108.529 1026,108.529 C877.123,108.529 756,229.651 756,378.529 L648,378.529 C648,229.651 526.878,108.529 378,108.529 L378,108.529 Z" id="Shape"></path>
        </g>
    </g>
</svg>