<?xml version="1.0" encoding="UTF-8"?>
<svg width="1297px" height="1309px" viewBox="0 0 1297 1309" version="1.1" xmlns="http://www.w3.org/2000/svg" xmlns:xlink="http://www.w3.org/1999/xlink">
    <!-- Generator: Sketch 40 (33762) - http://www.bohemiancoding.com/sketch -->
    <title>music_red</title>
    <desc>Created with Sketch.</desc>
    <defs></defs>
    <g id="Page-1" stroke="none" stroke-width="1" fill="none" fill-rule="evenodd">
        <g id="music_red" fill="#E22C02">
            <g id="Music">
                <path d="M1296.152,0.225 L1232.027,13.725 L368.027,175.725 L324.152,182.475 L324.152,228.037 L324.152,906.412 C292.152,887.596 255.703,876.037 216.152,876.037 C97.498,876.037 0.152,973.383 0.152,1092.037 C0.152,1210.691 97.498,1308.037 216.152,1308.037 C334.806,1308.037 432.152,1210.691 432.152,1092.037 L432.152,487.912 L1188.152,346.162 L1188.152,744.412 C1156.152,725.596 1119.703,714.037 1080.152,714.037 C961.498,714.037 864.152,811.383 864.152,930.037 C864.152,1048.691 961.498,1146.037 1080.152,1146.037 C1198.806,1146.037 1296.152,1048.691 1296.152,930.037 L1296.152,66.037 L1296.152,0.225 L1296.152,0.225 Z M1188.152,130.162 L1188.152,238.162 L432.152,379.912 L432.152,271.912 L1188.152,130.162 L1188.152,130.162 Z M1080.152,822.037 C1140.439,822.037 1188.152,869.752 1188.152,930.037 C1188.152,990.324 1140.439,1038.037 1080.152,1038.037 C1019.867,1038.037 972.152,990.324 972.152,930.037 C972.152,869.752 1019.867,822.037 1080.152,822.037 L1080.152,822.037 Z M216.153,984.037 C276.439,984.037 324.153,1031.752 324.153,1092.037 C324.153,1152.324 276.439,1200.037 216.153,1200.037 C155.867,1200.037 108.153,1152.324 108.153,1092.037 C108.153,1031.752 155.867,984.037 216.153,984.037 L216.153,984.037 Z" id="Shape"></path>
            </g>
        </g>
    </g>
</svg>