<?xml version="1.0" encoding="utf-8"?>
<!-- Generator: Adobe Illustrator 16.0.0, SVG Export Plug-In . SVG Version: 6.00 Build 0)  -->
<!DOCTYPE svg PUBLIC "-//W3C//DTD SVG 1.1//EN" "http://www.w3.org/Graphics/SVG/1.1/DTD/svg11.dtd">
<svg version="1.1" id="Heart" xmlns="http://www.w3.org/2000/svg" xmlns:xlink="http://www.w3.org/1999/xlink" x="0px" y="0px"
	 width="200px" height="200px" viewBox="764 1196 200 200" enable-background="new 764 1196 200 200" xml:space="preserve">
<path fill="#E22C02" d="M864,1396l-3.79-2.627c-3.866-2.672-94.56-66.203-94.56-134.185c0-34.844,23.755-63.188,52.958-63.188
	c19.239,0,36.117,12.304,45.392,30.664c9.275-18.36,26.153-30.664,45.392-30.664c29.195,0,52.958,28.344,52.958,63.188
	c0,67.981-90.693,131.513-94.56,134.185L864,1396z M818.608,1214.054c-20.857,0-37.827,20.248-37.827,45.135
	c0,50.604,66.454,103.312,83.219,115.806c16.765-12.492,83.219-65.201,83.219-115.806c0-24.887-16.968-45.135-37.827-45.135
	c-20.857,0-37.826,20.248-37.826,45.135h-15.131C856.435,1234.301,839.465,1214.054,818.608,1214.054z"/>
</svg>
