<?xml version="1.0" encoding="utf-8"?>
<!-- Generator: Adobe Illustrator 16.0.4, SVG Export Plug-In . SVG Version: 6.00 Build 0)  -->
<!DOCTYPE svg PUBLIC "-//W3C//DTD SVG 1.1//EN" "http://www.w3.org/Graphics/SVG/1.1/DTD/svg11.dtd">
<svg version="1.1" xmlns="http://www.w3.org/2000/svg" xmlns:xlink="http://www.w3.org/1999/xlink" x="0px" y="0px"
	 width="1361.728px" height="1367.727px" viewBox="182.998 507.02 1361.728 1367.727"
	 enable-background="new 182.998 507.02 1361.728 1367.727" xml:space="preserve">
<g id="Water" display="none">
	<path display="inline" fill="#008DF9" d="M864,728.339l-29.235,35.083c0,0-74.801,90.128-150.857,202.311
		c-38.028,56.092-77.161,117.338-106.417,176.584c-29.257,59.245-50.285,115.893-50.285,168.397
		c0,185.067,151.728,336.795,336.795,336.795c185.068,0,336.796-151.728,336.796-336.795c0-52.504-21.029-109.152-50.286-168.397
		c-29.257-59.246-68.39-120.492-106.417-176.584C968.037,853.55,893.235,763.422,893.235,763.422L864,728.339z M864,848.789
		c20.971,25.803,60.07,71.706,119.282,159.042c36.814,54.303,72.525,113.976,99.401,168.398
		c26.875,54.422,43.268,104.661,43.268,134.485c0,144.243-117.707,261.952-261.951,261.952s-261.952-117.709-261.952-261.952
		c0-29.824,16.394-80.062,43.269-134.485s62.586-114.095,99.402-168.398C803.929,920.495,843.029,874.592,864,848.789z
		 M676.892,1310.714c0,102.739,84.369,187.108,187.108,187.108v-74.843c-61.916,0-112.265-50.351-112.265-112.266H676.892z"/>
	
		<circle display="inline" fill="none" stroke="#008DF9" stroke-width="46.3352" stroke-miterlimit="10" cx="864" cy="1187.924" r="650.91"/>
</g>
<g id="Volt" display="none">
	<path display="inline" fill="#C4FF12" d="M862.747,810.883v342l152,38l-148.201,380h-3.799v-305.178l-152-38l148.2-416.822H862.747
		 M938.747,734.883h-76h-3.801h-53.656l-17.974,50.54l-148.2,416.821l-28.043,78.889l81.205,20.292l94.468,23.599v245.859v76h76h3.8
		h51.945l18.886-48.374l148.201-380l31.35-80.408l-83.752-20.938l-94.43-23.636V810.883L938.747,734.883L938.747,734.883z"/>
	
		<circle display="inline" fill="none" stroke="#C4FF12" stroke-width="46.3352" stroke-miterlimit="10" cx="864.001" cy="1190.883" r="650.91"/>
</g>
<g id="Sun" display="none">
	<path display="inline" fill="#FD8E22" d="M832.015,776.883v159.23h63.692v-159.23H832.015z M593.169,875.407l-44.784,44.783
		l112.457,113.452l45.779-45.779L593.169,875.407z M1134.554,875.407l-113.452,112.456l45.779,45.779l112.457-113.452
		L1134.554,875.407z M863.861,967.96c-122.74,0-222.923,100.183-222.923,222.923c0,122.74,100.183,222.923,222.923,222.923
		c122.74,0,222.923-100.183,222.923-222.923C1086.784,1068.143,986.602,967.96,863.861,967.96z M863.861,1031.652
		c88.318,0,159.23,70.912,159.23,159.23s-70.912,159.23-159.23,159.23s-159.231-70.912-159.231-159.23
		S775.543,1031.652,863.861,1031.652z M449.861,1159.037v63.692h159.231v-63.692H449.861z M1118.631,1159.037v63.692h159.23v-63.692
		H1118.631z M660.842,1348.123l-112.457,113.452l44.784,44.784l113.452-112.457L660.842,1348.123z M1066.881,1348.123
		l-45.779,45.779l113.452,112.457l44.784-44.784L1066.881,1348.123z M832.015,1445.652v159.23h63.692v-159.23H832.015z"/>
	
		<circle display="inline" fill="none" stroke="#FD8E22" stroke-width="46.3352" stroke-miterlimit="10" cx="864.001" cy="1190.883" r="650.91"/>
</g>
<g id="Smile" display="none">
	
		<circle display="inline" fill="none" stroke="#F6F900" stroke-width="46.3352" stroke-miterlimit="10" cx="863.861" cy="1190.883" r="650.91"/>
	<path display="inline" fill="#F6F900" d="M863.861,806.883c-211.698,0-384,172.302-384,384s172.302,384,384,384
		s384-172.302,384-384S1075.56,806.883,863.861,806.883z M863.861,870.883c177.109,0,320,142.89,320,320
		c0,177.11-142.891,320-320,320c-177.11,0-320-142.89-320-320C543.861,1013.773,686.751,870.883,863.861,870.883z M639.861,1126.883
		v64h160v-64H639.861z M927.861,1126.883v64h160v-64H927.861z M639.861,1286.883c0,0,51.392,160,224,160s224-160,224-160H639.861z"
		/>
</g>
<g id="Peach" display="none">
	
		<circle display="inline" fill="none" stroke="#FD8E22" stroke-width="46.3352" stroke-miterlimit="10" cx="863.861" cy="1190.883" r="650.91"/>
	<path display="inline" fill="#FD8E22" d="M786.153,761.414l-29.011,60.095c57.855,27.389,74.693,57.896,77.708,79.781
		c-22.494-6.782-46.033-10.361-70.456-10.361c-168.881,0-298.401,167.257-298.401,364.711c0,197.454,129.52,364.712,298.401,364.712
		c35.215,0,68.465-8.217,99.467-21.758c31.024,13.443,64.276,21.758,99.467,21.758c168.881,0,298.4-167.258,298.4-364.712
		c0-197.454-129.52-364.711-298.4-364.711c-21.949,0-43.783,2.862-64.239,8.289C894.26,852.898,863.409,797.988,786.153,761.414z
		 M764.395,957.239c9.2,0,17.965,0.71,26.939,2.072c-37.24,32.426-68.656,73.774-90.142,122.262l60.095,26.938
		c41.096-92.734,117.401-151.272,202.042-151.272c124.082,0,232.089,129.617,232.089,298.4s-108.007,298.4-232.089,298.4
		c-84.642,0-160.948-58.538-202.042-151.272l-60.095,26.939c21.486,48.486,52.902,89.835,90.142,122.261
		c-8.974,1.362-17.739,2.072-26.939,2.072c-124.083,0-232.09-129.617-232.09-298.4S640.312,957.239,764.395,957.239z"/>
</g>
<g id="Flower" display="none">
	<path display="inline" fill="#F900C1" d="M863.855,832.142c-87.029,0-157.216,69.114-162.369,154.904
		c-77.053-15.172-156.975,25.013-185.697,100.781c-29.873,78.803,7.733,165,81.184,202.494
		c-48.887,68.818-38.632,164.997,27.062,220.225c69.146,58.167,173.284,48.626,231.422-20.529
		c3.612-4.294,4.536-10.206,7.466-14.931c3.119,5.156,4.486,11.211,8.398,15.864c58.167,69.145,162.303,78.706,231.423,20.529
		c65.803-55.354,75.329-151.405,26.128-220.225c74.733-36.944,113.184-123.974,83.052-203.427
		c-28.725-75.774-108.655-115.958-185.698-100.781C1021.072,901.256,950.885,832.142,863.855,832.142z M863.855,891.863
		c58.062,0,104.514,46.451,104.514,104.514c0,4.675-1.999,13.011-5.599,23.329c-0.111,0.319,0.115,0.61,0,0.934l-88.649,125.975
		c9.297-30.832,19.596-65.731,19.596-75.585c0-16.483-13.378-29.861-29.861-29.861c-16.482,0-29.86,13.378-29.86,29.861
		c0,9.399,8.21,42.624,15.863,72.786l-86.783-130.642c-2.008-6.935-3.732-13.111-3.732-16.797
		C759.343,938.314,805.793,891.863,863.855,891.863z M666.027,1041.168c13.622-0.478,27.48,1.385,41.059,6.532
		c2.286,0.872,6.168,3.995,11.198,7.465c0.297,0.205,0.628-0.212,0.933,0l83.051,125.975c-26.117-17.69-55.292-36.854-64.388-40.125
		c-15.527-5.584-32.675,2.231-38.259,17.729c-5.583,15.498,2.232,32.646,17.73,38.26c8.947,3.217,43.972,5.736,75.585,7.465
		l-151.171,41.992c-3.846-0.676-7.126-1.966-9.332-2.799c-54.306-20.587-81.245-80.995-60.655-135.308
		C587.219,1067.626,625.16,1042.604,666.027,1041.168z M1061.685,1041.168c40.863,1.439,78.811,26.463,94.249,67.188
		c20.584,54.273-6.355,114.724-60.655,135.308c-3.732,1.409-11.2,3.125-19.597,3.732L930.11,1204.47
		c32.521-1.696,70.647-4.011,80.251-7.465c15.497-5.613,23.313-22.761,17.729-38.259c-5.584-15.499-22.731-23.314-38.26-17.73
		c-9.871,3.551-42.308,24.712-69.054,42.925l90.517-130.642c3.731-2.51,7.484-4.898,9.331-5.599
		C1034.194,1042.555,1048.063,1040.688,1061.685,1041.168z M813.466,1261.393c-26.572,18.562-59.308,41.371-66.254,49.458
		c-10.749,12.512-8.778,32.205,3.733,42.925c12.542,10.72,31.272,8.779,41.992-3.733c8.021-9.335,28.768-56.539,41.059-84.917
		v110.112c-5.438,35.812-16.332,67.09-24.262,76.52c-37.357,44.436-102.994,50.451-147.438,13.063
		c-44.436-37.357-50.452-102.993-13.064-147.438c3.152-3.757,10.387-9.354,19.596-14.93l3.732-1.867L813.466,1261.393z
		 M917.046,1263.259l142.773,41.059c8.302,5.229,14.805,10.524,17.729,13.998c37.379,44.41,31.383,110.049-13.064,147.438
		c-44.411,37.379-110.049,31.382-147.438-13.064c-7.57-9.005-17.679-38.139-23.329-71.854v-115.71
		c12.291,28.377,33.037,75.582,41.059,84.917c10.721,12.512,29.481,14.453,41.992,3.733c12.513-10.721,14.482-30.414,3.732-42.925
		C973.883,1303.147,943.366,1281.701,917.046,1263.259z"/>
	
		<circle display="inline" fill="none" stroke="#F900C1" stroke-width="46.3352" stroke-miterlimit="10" cx="863.861" cy="1190.883" r="650.91"/>
</g>
<g id="Heart">
	<circle fill="none" stroke="#BA02E2" stroke-width="46.3352" stroke-miterlimit="10" cx="860.539" cy="1190.883" r="650.91"/>
	<path fill="#BA02E2" d="M860.539,1499.096L846.601,1491c-14.218-8.236-347.747-204.047-347.747-413.575
		c0-107.393,87.36-194.754,194.754-194.754c70.751,0,132.822,37.921,166.932,94.511c34.11-56.59,96.18-94.511,166.932-94.511
		c107.365,0,194.754,87.361,194.754,194.754c0,209.527-333.529,405.338-347.746,413.575L860.539,1499.096z M693.607,938.315
		c-76.706,0-139.11,62.405-139.11,139.11c0,155.97,244.389,318.422,306.042,356.928c61.653-38.506,306.042-200.958,306.042-356.928
		c0-76.705-62.404-139.11-139.11-139.11c-76.704,0-139.109,62.405-139.109,139.11h-55.645
		C832.717,1000.72,770.312,938.315,693.607,938.315z"/>
</g>
<g id="Music" display="none">
	<path display="inline" fill="#E22C02" d="M1167.059,865.283l-32.548,6.852l-438.545,82.228l-22.27,3.426v23.126v344.326
		c-16.242-9.551-34.743-15.417-54.818-15.417c-60.226,0-109.636,49.409-109.636,109.636c0,60.226,49.41,109.637,109.636,109.637
		c60.225,0,109.636-49.411,109.636-109.637V1112.82l383.727-71.948v202.142c-16.243-9.551-34.744-15.418-54.818-15.418
		c-60.226,0-109.637,49.41-109.637,109.637c0,60.225,49.411,109.636,109.637,109.636c60.225,0,109.636-49.411,109.636-109.636
		V898.688V865.283z M1112.241,931.236v54.818l-383.727,71.949v-54.818L1112.241,931.236z M1057.423,1282.414
		c30.6,0,54.818,24.219,54.818,54.819s-24.219,54.818-54.818,54.818s-54.818-24.219-54.818-54.818
		S1026.823,1282.414,1057.423,1282.414z M618.878,1364.642c30.6,0,54.818,24.218,54.818,54.817
		c0,30.601-24.218,54.818-54.818,54.818s-54.818-24.218-54.818-54.818C564.061,1388.859,588.279,1364.642,618.878,1364.642z"/>
	
		<circle display="inline" fill="none" stroke="#E22C02" stroke-width="46.3352" stroke-miterlimit="10" cx="860.539" cy="1190.883" r="650.91"/>
</g>
</svg>
