<?xml version="1.0" encoding="utf-8"?>
<!-- Generator: Adobe Illustrator 16.0.4, SVG Export Plug-In . SVG Version: 6.00 Build 0)  -->
<!DOCTYPE svg PUBLIC "-//W3C//DTD SVG 1.1//EN" "http://www.w3.org/Graphics/SVG/1.1/DTD/svg11.dtd">
<svg version="1.1" id="Heart" xmlns="http://www.w3.org/2000/svg" xmlns:xlink="http://www.w3.org/1999/xlink" x="0px" y="0px"
	 width="1728px" height="2592px" viewBox="0 0 1728 2592" enable-background="new 0 0 1728 2592" xml:space="preserve">
<path fill="#E22C02" d="M864,1894.953l-27.054-15.714C809.352,1863.256,162,1483.203,162,1076.529c0-208.44,169.56-378,378-378
	c137.322,0,257.796,73.602,324,183.438c66.205-109.836,186.677-183.438,324-183.438c208.387,0,378,169.56,378,378
	c0,406.674-647.352,786.727-674.945,802.71L864,1894.953z M540,806.529c-148.878,0-270,121.122-270,270
	c0,302.724,474.336,618.03,594,692.766c119.664-74.735,594-390.042,594-692.766c0-148.878-121.121-270-270-270
	c-148.877,0-270,121.122-270,270H810C810,927.651,688.878,806.529,540,806.529z"/>
</svg>
