<?xml version="1.0" encoding="utf-8"?>
<!-- Generator: Adobe Illustrator 16.0.0, SVG Export Plug-In . SVG Version: 6.00 Build 0)  -->
<!DOCTYPE svg PUBLIC "-//W3C//DTD SVG 1.1//EN" "http://www.w3.org/Graphics/SVG/1.1/DTD/svg11.dtd">
<svg version="1.1" id="Music" xmlns="http://www.w3.org/2000/svg" xmlns:xlink="http://www.w3.org/1999/xlink" x="0px" y="0px"
	 width="200px" height="200px" viewBox="764 1196 200 200" enable-background="new 764 1196 200 200" xml:space="preserve">
<path fill="#BA02E2" d="M964,1196l-9.923,2.059l-133.703,24.709l-6.79,1.03v6.949v103.472c-4.952-2.869-10.592-4.633-16.712-4.633
	c-18.362,0-33.426,14.848-33.426,32.946s15.064,32.946,33.426,32.946c18.361,0,33.424-14.848,33.424-32.946v-92.146l116.99-21.621
	v60.745c-4.951-2.871-10.593-4.634-16.713-4.634c-18.361,0-33.426,14.849-33.426,32.946c0,18.099,15.064,32.947,33.426,32.947
	S964,1355.922,964,1337.823v-131.785V1196z M947.287,1215.819v16.473l-116.99,21.622v-16.474L947.287,1215.819z M930.574,1321.351
	c9.33,0,16.713,7.277,16.713,16.473c0,9.196-7.383,16.474-16.713,16.474c-9.328,0-16.713-7.277-16.713-16.474
	C913.861,1328.628,921.246,1321.351,930.574,1321.351z M796.873,1346.06c9.328,0,16.712,7.278,16.712,16.474
	s-7.384,16.473-16.712,16.473c-9.33,0-16.713-7.277-16.713-16.473S787.543,1346.06,796.873,1346.06z"/>
</svg>
