<?xml version="1.0" encoding="utf-8"?>
<!-- Generator: Adobe Illustrator 16.0.4, SVG Export Plug-In . SVG Version: 6.00 Build 0)  -->
<!DOCTYPE svg PUBLIC "-//W3C//DTD SVG 1.1//EN" "http://www.w3.org/Graphics/SVG/1.1/DTD/svg11.dtd">
<svg version="1.1" id="Music" xmlns="http://www.w3.org/2000/svg" xmlns:xlink="http://www.w3.org/1999/xlink" x="0px" y="0px"
	 width="1728px" height="2592px" viewBox="0 0 1728 2592" enable-background="new 0 0 1728 2592" xml:space="preserve">
<path fill="#BA02E2" d="M1469.152,641.225l-64.125,13.5l-864,162l-43.875,6.75v45.562v678.375c-32-18.816-68.449-30.375-108-30.375
	c-118.654,0-216,97.346-216,216s97.346,216,216,216c118.654,0,216-97.346,216-216v-604.125l756-141.75v398.25
	c-32-18.816-68.449-30.375-108-30.375c-118.654,0-216,97.346-216,216s97.346,216,216,216s216-97.346,216-216v-864V641.225z
	 M1361.152,771.162v108l-756,141.75v-108L1361.152,771.162z M1253.152,1463.037c60.287,0,108,47.715,108,108
	c0,60.287-47.713,108-108,108c-60.285,0-108-47.713-108-108C1145.152,1510.752,1192.867,1463.037,1253.152,1463.037z
	 M389.153,1625.037c60.286,0,108,47.715,108,108c0,60.287-47.714,108-108,108s-108-47.713-108-108
	C281.153,1672.752,328.867,1625.037,389.153,1625.037z"/>
</svg>
