<?xml version="1.0" encoding="utf-8"?>
<!-- Generator: Adobe Illustrator 16.0.0, SVG Export Plug-In . SVG Version: 6.00 Build 0)  -->
<!DOCTYPE svg PUBLIC "-//W3C//DTD SVG 1.1//EN" "http://www.w3.org/Graphics/SVG/1.1/DTD/svg11.dtd">
<svg version="1.1" id="Peach" xmlns="http://www.w3.org/2000/svg" xmlns:xlink="http://www.w3.org/1999/xlink" x="0px" y="0px"
	 width="200px" height="200px" viewBox="764 1196 200 200" enable-background="new 764 1196 200 200" xml:space="preserve">
<path fill="#FD8E22" d="M846.027,1196.672l-6.71,13.898c13.381,6.335,17.275,13.391,17.973,18.452
	c-5.202-1.569-10.646-2.396-16.295-2.396c-39.06,0-69.015,38.683-69.015,84.35c0,45.668,29.955,84.352,69.015,84.352
	c8.145,0,15.834-1.9,23.005-5.033c7.175,3.109,14.866,5.033,23.005,5.033c39.059,0,69.015-38.684,69.015-84.352
	c0-45.667-29.956-84.35-69.015-84.35c-5.077,0-10.127,0.662-14.857,1.917C871.03,1217.831,863.895,1205.131,846.027,1196.672z
	 M840.995,1241.963c2.128,0,4.154,0.164,6.23,0.479c-8.613,7.5-15.879,17.062-20.848,28.277l13.898,6.23
	c9.504-21.448,27.152-34.986,46.729-34.986c28.697,0,53.678,29.978,53.678,69.014c0,39.037-24.98,69.014-53.678,69.014
	c-19.576,0-37.225-13.539-46.729-34.984l-13.898,6.229c4.969,11.215,12.234,20.777,20.848,28.277
	c-2.076,0.314-4.103,0.479-6.23,0.479c-28.698,0-53.678-29.977-53.678-69.014C787.317,1271.941,812.297,1241.963,840.995,1241.963z"
	/>
</svg>
