<?xml version="1.0" encoding="utf-8"?>
<!-- Generator: Adobe Illustrator 16.0.4, SVG Export Plug-In . SVG Version: 6.00 Build 0)  -->
<!DOCTYPE svg PUBLIC "-//W3C//DTD SVG 1.1//EN" "http://www.w3.org/Graphics/SVG/1.1/DTD/svg11.dtd">
<svg version="1.1" id="Peach" xmlns="http://www.w3.org/2000/svg" xmlns:xlink="http://www.w3.org/1999/xlink" x="0px" y="0px"
	 width="1728px" height="2592px" viewBox="0 0 1728 2592" enable-background="new 0 0 1728 2592" xml:space="preserve">
<path fill="#FD8E22" d="M694.59,546.545l-47.25,97.875c94.228,44.608,121.651,94.296,126.562,129.938
	c-36.634-11.045-74.972-16.875-114.75-16.875c-275.053,0-486,272.41-486,594s210.947,594,486,594
	c57.355,0,111.508-13.382,162-35.438c50.53,21.897,104.687,35.438,162,35.438c275.053,0,486-272.41,486-594s-210.947-594-486-594
	c-35.748,0-71.309,4.661-104.625,13.5C870.662,695.544,820.416,606.112,694.59,546.545z M659.152,865.482
	c14.985,0,29.26,1.157,43.875,3.375c-60.651,52.812-111.818,120.156-146.812,199.125l97.875,43.875
	c66.931-151.035,191.21-246.375,329.062-246.375c202.091,0,378,211.106,378,486s-175.909,486-378,486
	c-137.853,0-262.132-95.34-329.062-246.375l-97.875,43.875c34.994,78.969,86.161,146.313,146.812,199.125
	c-14.615,2.218-28.89,3.375-43.875,3.375c-202.092,0-378-211.106-378-486S457.061,865.482,659.152,865.482z"/>
</svg>
