<?xml version="1.0" encoding="utf-8"?>
<!-- Generator: Adobe Illustrator 16.0.4, SVG Export Plug-In . SVG Version: 6.00 Build 0)  -->
<!DOCTYPE svg PUBLIC "-//W3C//DTD SVG 1.1//EN" "http://www.w3.org/Graphics/SVG/1.1/DTD/svg11.dtd">
<svg version="1.1" id="Smile" xmlns="http://www.w3.org/2000/svg" xmlns:xlink="http://www.w3.org/1999/xlink" x="0px" y="0px"
	 width="1728px" height="2592px" viewBox="0 0 1728 2592" enable-background="new 0 0 1728 2592" xml:space="preserve">
<path fill="#F6F900" d="M864,588.16c-357.241,0-648,290.759-648,648s290.759,648,648,648s648-290.759,648-648
	S1221.241,588.16,864,588.16z M864,696.16c298.873,0,540,241.127,540,540s-241.127,540-540,540s-540-241.127-540-540
	S565.127,696.16,864,696.16z M486,1128.16v108h270v-108H486z M972,1128.16v108h270v-108H972z M486,1398.16c0,0,86.724,270,378,270
	s378-270,378-270H486z"/>
</svg>
