<?xml version="1.0" encoding="utf-8"?>
<!-- Generator: Adobe Illustrator 16.0.0, SVG Export Plug-In . SVG Version: 6.00 Build 0)  -->
<!DOCTYPE svg PUBLIC "-//W3C//DTD SVG 1.1//EN" "http://www.w3.org/Graphics/SVG/1.1/DTD/svg11.dtd">
<svg version="1.1" id="Sun" xmlns="http://www.w3.org/2000/svg" xmlns:xlink="http://www.w3.org/1999/xlink" x="0px" y="0px"
	 width="200px" height="200px" viewBox="764 1196 200 200" enable-background="new 764 1196 200 200" xml:space="preserve">
<path fill="#FD8E22" d="M856.355,1197.253v38.221h15.288v-38.221H856.355z M799.025,1220.902l-10.75,10.75l26.993,27.232
	l10.988-10.989L799.025,1220.902z M928.975,1220.902l-27.232,26.993l10.988,10.989l26.994-27.232L928.975,1220.902z M864,1243.118
	c-29.462,0-53.509,24.047-53.509,53.509c0,29.461,24.047,53.508,53.509,53.508c29.461,0,53.509-24.047,53.509-53.508
	C917.509,1267.165,893.461,1243.118,864,1243.118z M864,1258.406c21.199,0,38.221,17.021,38.221,38.221
	c0,21.199-17.021,38.22-38.221,38.22s-38.221-17.021-38.221-38.22C825.779,1275.427,842.801,1258.406,864,1258.406z
	 M764.626,1288.982v15.288h38.22v-15.288H764.626z M925.152,1288.982v15.288h38.221v-15.288H925.152z M815.269,1334.369
	l-26.993,27.232l10.75,10.75l27.232-26.994L815.269,1334.369z M912.73,1334.369l-10.988,10.988l27.232,26.994l10.75-10.75
	L912.73,1334.369z M856.355,1357.779V1396h15.288v-38.221H856.355z"/>
</svg>
