<?xml version="1.0" encoding="utf-8"?>
<!-- Generator: Adobe Illustrator 16.0.4, SVG Export Plug-In . SVG Version: 6.00 Build 0)  -->
<!DOCTYPE svg PUBLIC "-//W3C//DTD SVG 1.1//EN" "http://www.w3.org/Graphics/SVG/1.1/DTD/svg11.dtd">
<svg version="1.1" id="Sun" xmlns="http://www.w3.org/2000/svg" xmlns:xlink="http://www.w3.org/1999/xlink" x="0px" y="0px"
	 width="1728px" height="2592px" viewBox="0 0 1728 2592" enable-background="new 0 0 1728 2592" xml:space="preserve">
<path fill="#FD8E22" d="M810,624v270h108V624H810z M405,791.062L329.062,867l190.688,192.375l77.625-77.625L405,791.062z
	 M1323,791.062L1130.625,981.75l77.625,77.625L1398.938,867L1323,791.062z M864,948c-208.124,0-378,169.876-378,378
	s169.876,378,378,378s378-169.876,378-378S1072.124,948,864,948z M864,1056c149.757,0,270,120.243,270,270s-120.243,270-270,270
	s-270-120.243-270-270S714.243,1056,864,1056z M162,1272v108h270v-108H162z M1296,1272v108h270v-108H1296z M519.75,1592.625
	L329.062,1785L405,1860.938l192.375-190.688L519.75,1592.625z M1208.25,1592.625l-77.625,77.625L1323,1860.938l75.938-75.938
	L1208.25,1592.625z M810,1758v270h108v-270H810z"/>
</svg>
