<?xml version="1.0" encoding="utf-8"?>
<!-- Generator: Adobe Illustrator 16.0.0, SVG Export Plug-In . SVG Version: 6.00 Build 0)  -->
<!DOCTYPE svg PUBLIC "-//W3C//DTD SVG 1.1//EN" "http://www.w3.org/Graphics/SVG/1.1/DTD/svg11.dtd">
<svg version="1.1" id="Water" xmlns="http://www.w3.org/2000/svg" xmlns:xlink="http://www.w3.org/1999/xlink" x="0px" y="0px"
	 width="200px" height="200px" viewBox="789.512 1395.521 200 200" enable-background="new 789.512 1395.521 200 200"
	 xml:space="preserve">
<path fill="#008DF9" d="M889.512,1396.099l-6.324,7.589c0,0-16.182,19.498-32.635,43.766c-8.227,12.135-16.692,25.384-23.021,38.2
	c-6.329,12.817-10.878,25.071-10.878,36.431c0,40.034,32.823,72.858,72.858,72.858c40.035,0,72.859-32.824,72.859-72.858
	c0-11.359-4.551-23.613-10.879-36.431c-6.328-12.816-14.795-26.065-23.021-38.2c-16.451-24.268-32.635-43.766-32.635-43.766
	L889.512,1396.099z M889.512,1422.155c4.537,5.581,12.996,15.512,25.805,34.405c7.963,11.747,15.688,24.656,21.502,36.43
	c5.816,11.773,9.361,22.642,9.361,29.094c0,31.203-25.463,56.667-56.668,56.667c-31.205,0-56.668-25.464-56.668-56.667
	c0-6.452,3.546-17.32,9.36-29.094s13.539-24.683,21.503-36.43C876.518,1437.667,884.977,1427.737,889.512,1422.155z
	 M849.035,1522.084c0,22.225,18.252,40.477,40.477,40.477v-16.191c-13.395,0-24.286-10.892-24.286-24.285H849.035z"/>
</svg>
