<?xml version="1.0" encoding="utf-8"?>
<!-- Generator: Adobe Illustrator 16.0.4, SVG Export Plug-In . SVG Version: 6.00 Build 0)  -->
<!DOCTYPE svg PUBLIC "-//W3C//DTD SVG 1.1//EN" "http://www.w3.org/Graphics/SVG/1.1/DTD/svg11.dtd">
<svg version="1.1" id="Water" xmlns="http://www.w3.org/2000/svg" xmlns:xlink="http://www.w3.org/1999/xlink" x="0px" y="0px"
	 width="1728px" height="2592px" viewBox="0 0 1728 2592" enable-background="new 0 0 1728 2592" xml:space="preserve">
<path fill="#008DF9" d="M864,524.736l-42.188,50.625c0,0-107.938,130.057-217.688,291.938
	c-54.875,80.94-111.344,169.319-153.562,254.812S378,1289.347,378,1365.111c0,267.055,218.945,486,486,486s486-218.945,486-486
	c0-75.764-30.344-157.507-72.562-243s-98.688-173.872-153.562-254.812c-109.749-161.881-217.688-291.938-217.688-291.938
	L864,524.736z M864,698.548c30.262,37.232,86.683,103.472,172.125,229.5c53.125,78.359,104.656,164.468,143.438,243
	S1242,1322.074,1242,1365.111c0,208.145-169.854,378-378,378s-378-169.855-378-378c0-43.037,23.656-115.531,62.438-194.063
	s90.312-164.641,143.438-243C777.317,802.02,833.738,735.781,864,698.548z M594,1365.111c0,148.254,121.745,270,270,270v-108
	c-89.346,0-162-72.654-162-162H594z"/>
</svg>
