<?xml version="1.0" encoding="utf-8"?>
<!-- Generator: Adobe Illustrator 16.0.0, SVG Export Plug-In . SVG Version: 6.00 Build 0)  -->
<!DOCTYPE svg PUBLIC "-//W3C//DTD SVG 1.1//EN" "http://www.w3.org/Graphics/SVG/1.1/DTD/svg11.dtd">
<svg version="1.1" id="Layer_1" xmlns="http://www.w3.org/2000/svg" xmlns:xlink="http://www.w3.org/1999/xlink" x="0px" y="0px"
	 width="142px" height="77px" viewBox="0 0 142 77" enable-background="new 0 0 142 77" xml:space="preserve">
<filter  id="filter-2" filterUnits="objectBoundingBox" height="200%" width="200%" y="-50%" x="-50%">
	<feOffset  result="shadowOffsetOuter1" in="SourceAlpha" dy="2" dx="0"></feOffset>
	<feGaussianBlur  stdDeviation="5" result="shadowBlurOuter1" in="shadowOffsetOuter1"></feGaussianBlur>
	<feColorMatrix  type="matrix" values="0 0 0 0 0   0 0 0 0 0   0 0 0 0 0  0 0 0 0.220420063 0" in="shadowBlurOuter1">
		</feColorMatrix>
</filter>
<title>flipp</title>
<desc>Created with Sketch.</desc>
<g id="Page-1">
	<g id="Mobile-Portrait" transform="translate(-115.000000, -52.000000)">
		<g id="flipp">
			<g filter="url(#filter-2)">
				<g enable-background="new    ">
					<path fill="#FFFFFF" d="M125.234,73.125h2.842c0.019-4.18,0.088-6.65,0.205-7.412c0.215-1.758,0.952-3.149,2.212-4.175
						S133.535,60,135.84,60c1.66,0,3.535,0.381,5.625,1.143v6.094c-1.153-0.332-2.1-0.498-2.842-0.498
						c-0.938,0-1.622,0.195-2.051,0.586c-0.312,0.293-0.469,0.898-0.469,1.816l-0.029,3.984h5.068v6.768h-5.068V105h-7.998V79.893
						h-2.842V73.125z"/>
					<path fill="#FFFFFF" d="M144.951,60.82h7.998V105h-7.998V60.82z"/>
					<path fill="#FFFFFF" d="M163.335,60c1.402,0,2.604,0.508,3.607,1.523s1.505,2.246,1.505,3.691c0,1.426-0.497,2.642-1.49,3.647
						c-0.993,1.006-2.181,1.509-3.563,1.509c-1.422,0-2.634-0.513-3.637-1.538s-1.504-2.271-1.504-3.735
						c0-1.406,0.496-2.607,1.49-3.604C160.735,60.498,161.933,60,163.335,60z M159.336,73.125h7.998V105h-7.998V73.125z"/>
					<path fill="#FFFFFF" d="M182.539,73.125v3.516c1.445-1.445,3.007-2.529,4.688-3.252c1.68-0.723,3.477-1.084,5.391-1.084
						c4.16,0,7.695,1.572,10.605,4.717s4.365,7.178,4.365,12.1c0,4.746-1.504,8.716-4.512,11.909s-6.572,4.79-10.693,4.79
						c-1.836,0-3.545-0.327-5.127-0.981s-3.154-1.724-4.717-3.208v15.029H174.6V73.125H182.539z M190.947,79.688
						c-2.52,0-4.61,0.859-6.27,2.578c-1.66,1.719-2.49,3.965-2.49,6.738c0,2.832,0.83,5.122,2.49,6.87
						c1.66,1.748,3.75,2.622,6.27,2.622c2.441,0,4.497-0.889,6.167-2.666s2.505-4.043,2.505-6.797c0-2.734-0.82-4.976-2.461-6.724
						S193.447,79.688,190.947,79.688z"/>
					<path fill="#FFFFFF" d="M222.148,73.125v3.516c1.445-1.445,3.008-2.529,4.688-3.252s3.477-1.084,5.391-1.084
						c4.16,0,7.695,1.572,10.605,4.717s4.365,7.178,4.365,12.1c0,4.746-1.504,8.716-4.512,11.909s-6.572,4.79-10.693,4.79
						c-1.836,0-3.545-0.327-5.127-0.981s-3.154-1.724-4.717-3.208v15.029h-7.939V73.125H222.148z M230.557,79.688
						c-2.52,0-4.609,0.859-6.27,2.578s-2.49,3.965-2.49,6.738c0,2.832,0.83,5.122,2.49,6.87s3.75,2.622,6.27,2.622
						c2.441,0,4.497-0.889,6.167-2.666s2.505-4.043,2.505-6.797c0-2.734-0.82-4.976-2.461-6.724S233.057,79.688,230.557,79.688z"/>
				</g>
			</g>
			<g>
				<g enable-background="new    ">
					<path fill="#FFFFFF" d="M125.234,73.125h2.842c0.019-4.18,0.088-6.65,0.205-7.412c0.215-1.758,0.952-3.149,2.212-4.175
						S133.535,60,135.84,60c1.66,0,3.535,0.381,5.625,1.143v6.094c-1.153-0.332-2.1-0.498-2.842-0.498
						c-0.938,0-1.622,0.195-2.051,0.586c-0.312,0.293-0.469,0.898-0.469,1.816l-0.029,3.984h5.068v6.768h-5.068V105h-7.998V79.893
						h-2.842V73.125z"/>
					<path fill="#FFFFFF" d="M144.951,60.82h7.998V105h-7.998V60.82z"/>
					<path fill="#FFFFFF" d="M163.335,60c1.402,0,2.604,0.508,3.607,1.523s1.505,2.246,1.505,3.691c0,1.426-0.497,2.642-1.49,3.647
						c-0.993,1.006-2.181,1.509-3.563,1.509c-1.422,0-2.634-0.513-3.637-1.538s-1.504-2.271-1.504-3.735
						c0-1.406,0.496-2.607,1.49-3.604C160.735,60.498,161.933,60,163.335,60z M159.336,73.125h7.998V105h-7.998V73.125z"/>
					<path fill="#FFFFFF" d="M182.539,73.125v3.516c1.445-1.445,3.007-2.529,4.688-3.252c1.68-0.723,3.477-1.084,5.391-1.084
						c4.16,0,7.695,1.572,10.605,4.717s4.365,7.178,4.365,12.1c0,4.746-1.504,8.716-4.512,11.909s-6.572,4.79-10.693,4.79
						c-1.836,0-3.545-0.327-5.127-0.981s-3.154-1.724-4.717-3.208v15.029H174.6V73.125H182.539z M190.947,79.688
						c-2.52,0-4.61,0.859-6.27,2.578c-1.66,1.719-2.49,3.965-2.49,6.738c0,2.832,0.83,5.122,2.49,6.87
						c1.66,1.748,3.75,2.622,6.27,2.622c2.441,0,4.497-0.889,6.167-2.666s2.505-4.043,2.505-6.797c0-2.734-0.82-4.976-2.461-6.724
						S193.447,79.688,190.947,79.688z"/>
					<path fill="#FFFFFF" d="M222.148,73.125v3.516c1.445-1.445,3.008-2.529,4.688-3.252s3.477-1.084,5.391-1.084
						c4.16,0,7.695,1.572,10.605,4.717s4.365,7.178,4.365,12.1c0,4.746-1.504,8.716-4.512,11.909s-6.572,4.79-10.693,4.79
						c-1.836,0-3.545-0.327-5.127-0.981s-3.154-1.724-4.717-3.208v15.029h-7.939V73.125H222.148z M230.557,79.688
						c-2.52,0-4.609,0.859-6.27,2.578s-2.49,3.965-2.49,6.738c0,2.832,0.83,5.122,2.49,6.87s3.75,2.622,6.27,2.622
						c2.441,0,4.497-0.889,6.167-2.666s2.505-4.043,2.505-6.797c0-2.734-0.82-4.976-2.461-6.724S233.057,79.688,230.557,79.688z"/>
				</g>
			</g>
			<g>
				<g enable-background="new    ">
					<path fill="#FFFFFF" d="M125.234,73.125h2.842c0.019-4.18,0.088-6.65,0.205-7.412c0.215-1.758,0.952-3.149,2.212-4.175
						S133.535,60,135.84,60c1.66,0,3.535,0.381,5.625,1.143v6.094c-1.153-0.332-2.1-0.498-2.842-0.498
						c-0.938,0-1.622,0.195-2.051,0.586c-0.312,0.293-0.469,0.898-0.469,1.816l-0.029,3.984h5.068v6.768h-5.068V105h-7.998V79.893
						h-2.842V73.125z"/>
					<path fill="#FFFFFF" d="M144.951,60.82h7.998V105h-7.998V60.82z"/>
					<path fill="#FFFFFF" d="M163.335,60c1.402,0,2.604,0.508,3.607,1.523s1.505,2.246,1.505,3.691c0,1.426-0.497,2.642-1.49,3.647
						c-0.993,1.006-2.181,1.509-3.563,1.509c-1.422,0-2.634-0.513-3.637-1.538s-1.504-2.271-1.504-3.735
						c0-1.406,0.496-2.607,1.49-3.604C160.735,60.498,161.933,60,163.335,60z M159.336,73.125h7.998V105h-7.998V73.125z"/>
					<path fill="#FFFFFF" d="M182.539,73.125v3.516c1.445-1.445,3.007-2.529,4.688-3.252c1.68-0.723,3.477-1.084,5.391-1.084
						c4.16,0,7.695,1.572,10.605,4.717s4.365,7.178,4.365,12.1c0,4.746-1.504,8.716-4.512,11.909s-6.572,4.79-10.693,4.79
						c-1.836,0-3.545-0.327-5.127-0.981s-3.154-1.724-4.717-3.208v15.029H174.6V73.125H182.539z M190.947,79.688
						c-2.52,0-4.61,0.859-6.27,2.578c-1.66,1.719-2.49,3.965-2.49,6.738c0,2.832,0.83,5.122,2.49,6.87
						c1.66,1.748,3.75,2.622,6.27,2.622c2.441,0,4.497-0.889,6.167-2.666s2.505-4.043,2.505-6.797c0-2.734-0.82-4.976-2.461-6.724
						S193.447,79.688,190.947,79.688z"/>
					<path fill="#FFFFFF" d="M222.148,73.125v3.516c1.445-1.445,3.008-2.529,4.688-3.252s3.477-1.084,5.391-1.084
						c4.16,0,7.695,1.572,10.605,4.717s4.365,7.178,4.365,12.1c0,4.746-1.504,8.716-4.512,11.909s-6.572,4.79-10.693,4.79
						c-1.836,0-3.545-0.327-5.127-0.981s-3.154-1.724-4.717-3.208v15.029h-7.939V73.125H222.148z M230.557,79.688
						c-2.52,0-4.609,0.859-6.27,2.578s-2.49,3.965-2.49,6.738c0,2.832,0.83,5.122,2.49,6.87s3.75,2.622,6.27,2.622
						c2.441,0,4.497-0.889,6.167-2.666s2.505-4.043,2.505-6.797c0-2.734-0.82-4.976-2.461-6.724S233.057,79.688,230.557,79.688z"/>
				</g>
			</g>
		</g>
	</g>
</g>
</svg>
